<mxfile host="Electron" agent="Mozilla/5.0 (Windows NT 10.0; Win64; x64) AppleWebKit/537.36 (KHTML, like Gecko) draw.io/24.7.17 Chrome/128.0.6613.36 Electron/32.0.1 Safari/537.36" version="24.7.17">
  <diagram name="PÃ¡gina-1" id="rnfuh4kPeIJZ5zyFxQdM">
    <mxGraphModel dx="988" dy="573" grid="1" gridSize="10" guides="1" tooltips="1" connect="1" arrows="1" fold="1" page="1" pageScale="1" pageWidth="827" pageHeight="1169" math="0" shadow="0">
      <root>
        <mxCell id="0" />
        <mxCell id="1" parent="0" />
        <mxCell id="ZXjAN_nlHAKm7UyKTE-P-1" value="LIBRO" style="whiteSpace=wrap;html=1;align=center;" parent="1" vertex="1">
          <mxGeometry x="485" y="40" width="80" height="40" as="geometry" />
        </mxCell>
        <mxCell id="ZXjAN_nlHAKm7UyKTE-P-2" value="TEMA" style="whiteSpace=wrap;html=1;align=center;" parent="1" vertex="1">
          <mxGeometry x="55" y="40" width="70" height="40" as="geometry" />
        </mxCell>
        <mxCell id="ZXjAN_nlHAKm7UyKTE-P-3" value="Pertenecer" style="shape=rhombus;perimeter=rhombusPerimeter;whiteSpace=wrap;html=1;align=center;" parent="1" vertex="1">
          <mxGeometry x="245" y="30" width="120" height="60" as="geometry" />
        </mxCell>
        <mxCell id="ZXjAN_nlHAKm7UyKTE-P-5" value="1 : M" style="endArrow=none;html=1;rounded=0;exitX=1;exitY=0.5;exitDx=0;exitDy=0;entryX=0;entryY=0.5;entryDx=0;entryDy=0;edgeStyle=orthogonalEdgeStyle;verticalAlign=bottom;" parent="1" source="ZXjAN_nlHAKm7UyKTE-P-2" target="ZXjAN_nlHAKm7UyKTE-P-3" edge="1">
          <mxGeometry relative="1" as="geometry">
            <mxPoint x="165" y="160" as="sourcePoint" />
            <mxPoint x="419" y="410" as="targetPoint" />
          </mxGeometry>
        </mxCell>
        <mxCell id="ZXjAN_nlHAKm7UyKTE-P-6" value="0 : M" style="endArrow=none;html=1;rounded=0;exitX=0;exitY=0.5;exitDx=0;exitDy=0;entryX=1;entryY=0.5;entryDx=0;entryDy=0;edgeStyle=orthogonalEdgeStyle;verticalAlign=bottom;" parent="1" source="ZXjAN_nlHAKm7UyKTE-P-1" target="ZXjAN_nlHAKm7UyKTE-P-3" edge="1">
          <mxGeometry relative="1" as="geometry">
            <mxPoint x="135" y="70" as="sourcePoint" />
            <mxPoint x="255" y="70" as="targetPoint" />
          </mxGeometry>
        </mxCell>
        <mxCell id="ZXjAN_nlHAKm7UyKTE-P-7" value="&lt;b&gt;M : M&lt;/b&gt;&lt;div&gt;&lt;b&gt;obligatorio - opcional&lt;/b&gt;&lt;/div&gt;" style="text;html=1;align=center;verticalAlign=middle;whiteSpace=wrap;rounded=0;" parent="1" vertex="1">
          <mxGeometry x="220.5" y="90" width="169" height="30" as="geometry" />
        </mxCell>
        <mxCell id="ZXjAN_nlHAKm7UyKTE-P-8" value="&lt;u&gt;codTema&lt;/u&gt;" style="ellipse;whiteSpace=wrap;html=1;align=center;" parent="1" vertex="1">
          <mxGeometry x="40" y="120" width="100" height="40" as="geometry" />
        </mxCell>
        <mxCell id="ZXjAN_nlHAKm7UyKTE-P-9" value="&lt;u&gt;codLibro&lt;/u&gt;" style="ellipse;whiteSpace=wrap;html=1;align=center;" parent="1" vertex="1">
          <mxGeometry x="475" y="120" width="100" height="40" as="geometry" />
        </mxCell>
        <mxCell id="ZXjAN_nlHAKm7UyKTE-P-10" value="" style="endArrow=none;html=1;rounded=0;exitX=0.5;exitY=0;exitDx=0;exitDy=0;entryX=0.5;entryY=1;entryDx=0;entryDy=0;edgeStyle=orthogonalEdgeStyle;verticalAlign=bottom;" parent="1" source="ZXjAN_nlHAKm7UyKTE-P-8" target="ZXjAN_nlHAKm7UyKTE-P-2" edge="1">
          <mxGeometry relative="1" as="geometry">
            <mxPoint x="155" y="110" as="sourcePoint" />
            <mxPoint x="409" y="360" as="targetPoint" />
          </mxGeometry>
        </mxCell>
        <mxCell id="ZXjAN_nlHAKm7UyKTE-P-11" value="" style="endArrow=none;html=1;rounded=0;exitX=0.5;exitY=0;exitDx=0;exitDy=0;entryX=0.5;entryY=1;entryDx=0;entryDy=0;edgeStyle=orthogonalEdgeStyle;verticalAlign=bottom;" parent="1" source="ZXjAN_nlHAKm7UyKTE-P-9" target="ZXjAN_nlHAKm7UyKTE-P-1" edge="1">
          <mxGeometry relative="1" as="geometry">
            <mxPoint x="100" y="130" as="sourcePoint" />
            <mxPoint x="100" y="90" as="targetPoint" />
          </mxGeometry>
        </mxCell>
      </root>
    </mxGraphModel>
  </diagram>
</mxfile>
